<svg xmlns="http://www.w3.org/2000/svg" viewBox="0 0 1200 760" role="img" aria-labelledby="title desc">
  <title id="title">Dashboard admin kesehatan</title>
  <desc id="desc">Ilustrasi dashboard admin dengan kartu data, grafik, dan basis pengetahuan kesehatan.</desc>
  <defs>
    <linearGradient id="bg" x1="0" y1="0" x2="1" y2="1">
      <stop offset="0" stop-color="#FFFFFF"/>
      <stop offset="1" stop-color="#FFDBFD"/>
    </linearGradient>
    <filter id="shadow" x="-20%" y="-20%" width="140%" height="140%">
      <feDropShadow dx="0" dy="16" stdDeviation="18" flood-color="#17182A" flood-opacity=".13"/>
    </filter>
  </defs>
  <rect width="1200" height="760" rx="34" fill="url(#bg)"/>
  <rect x="138" y="112" width="924" height="536" rx="34" fill="#FFFFFF" stroke="#C9BEFF" stroke-width="4" filter="url(#shadow)"/>
  <rect x="138" y="112" width="190" height="536" rx="34" fill="#6367FF"/>
  <rect x="178" y="174" width="110" height="20" rx="10" fill="#FFFFFF" opacity=".9"/>
  <rect x="178" y="244" width="106" height="14" rx="7" fill="#FFFFFF" opacity=".7"/>
  <rect x="178" y="306" width="92" height="14" rx="7" fill="#FFFFFF" opacity=".7"/>
  <rect x="178" y="368" width="116" height="14" rx="7" fill="#FFFFFF" opacity=".7"/>
  <rect x="384" y="172" width="166" height="124" rx="24" fill="#FFDBFD"/>
  <rect x="588" y="172" width="166" height="124" rx="24" fill="#8494FF"/>
  <rect x="792" y="172" width="166" height="124" rx="24" fill="#C9BEFF"/>
  <path d="M467 204v44M445 226h44" stroke="#6367FF" stroke-width="12" stroke-linecap="round"/>
  <path d="M660 204c-28 0-52 22-52 50h104c0-28-24-50-52-50z" fill="#FFFFFF" opacity=".8"/>
  <path d="M842 248h66M842 220h46" stroke="#FFFFFF" stroke-width="14" stroke-linecap="round"/>
  <rect x="384" y="354" width="340" height="220" rx="28" fill="#FFF7FF" stroke="#C9BEFF" stroke-width="3"/>
  <path d="M436 522V446M512 522V410M588 522V462M664 522V390" stroke="#6367FF" stroke-width="24" stroke-linecap="round"/>
  <rect x="782" y="354" width="220" height="220" rx="28" fill="#FFF7FF" stroke="#C9BEFF" stroke-width="3"/>
  <ellipse cx="892" cy="424" rx="82" ry="28" fill="#8494FF"/>
  <path d="M810 424v74c0 16 37 28 82 28s82-12 82-28v-74" fill="#8494FF" opacity=".78"/>
  <ellipse cx="892" cy="498" rx="82" ry="28" fill="none" stroke="#FFFFFF" stroke-width="8"/>
  <path d="M880 388v50M855 413h50" stroke="#FFFFFF" stroke-width="12" stroke-linecap="round"/>
</svg>
