<svg xmlns="http://www.w3.org/2000/svg" viewBox="0 0 640 420" role="img" aria-labelledby="title desc">
    <title id="title">Ilustrasi dashboard admin</title>
    <desc id="desc">Dashboard admin dengan statistik dan tabel data sistem pakar.</desc>
    <rect width="640" height="420" rx="28" fill="#FFFDFB"/>
    <rect x="64" y="60" width="512" height="300" rx="28" fill="#F2EAE0"/>
    <rect x="92" y="92" width="104" height="240" rx="20" fill="#9B8EC7"/>
    <rect x="224" y="96" width="124" height="72" rx="18" fill="#FFFFFF"/>
    <rect x="372" y="96" width="124" height="72" rx="18" fill="#FFFFFF"/>
    <rect x="224" y="196" width="272" height="112" rx="18" fill="#FFFFFF"/>
    <path d="M116 132h56M116 172h44M116 212h62M116 252h50" stroke="#FFFFFF" stroke-width="10" stroke-linecap="round"/>
    <path d="M250 132h64M398 132h58M252 232h204M252 264h164" stroke="#BDA6CE" stroke-width="10" stroke-linecap="round"/>
    <path d="M520 282c24-28 46-42 66-42" stroke="#B4D3D9" stroke-width="12" stroke-linecap="round"/>
    <circle cx="530" cy="282" r="22" fill="#B4D3D9"/>
</svg>
