<svg xmlns="http://www.w3.org/2000/svg" viewBox="0 0 1200 760" role="img" aria-labelledby="title desc">
  <title id="title">Akses aman admin kesehatan</title>
  <desc id="desc">Ilustrasi kunci keamanan, panel admin, dan simbol medis.</desc>
  <defs>
    <linearGradient id="bg" x1="0" y1="0" x2="1" y2="1">
      <stop offset="0" stop-color="#FFDBFD"/>
      <stop offset="1" stop-color="#C9BEFF"/>
    </linearGradient>
    <filter id="shadow" x="-20%" y="-20%" width="140%" height="140%">
      <feDropShadow dx="0" dy="16" stdDeviation="18" flood-color="#17182A" flood-opacity=".14"/>
    </filter>
  </defs>
  <rect width="1200" height="760" rx="34" fill="url(#bg)"/>
  <circle cx="970" cy="150" r="86" fill="#FFFFFF" opacity=".38"/>
  <rect x="288" y="168" width="624" height="424" rx="38" fill="#FFFFFF" stroke="#C9BEFF" stroke-width="4" filter="url(#shadow)"/>
  <path d="M454 348v-72c0-80 64-144 146-144s146 64 146 144v72" fill="none" stroke="#6367FF" stroke-width="34" stroke-linecap="round"/>
  <rect x="404" y="318" width="392" height="220" rx="34" fill="#FFF7FF" stroke="#C9BEFF" stroke-width="6"/>
  <circle cx="600" cy="420" r="34" fill="#8494FF"/>
  <path d="M600 452v44" stroke="#17182A" stroke-width="14" stroke-linecap="round"/>
  <rect x="478" y="560" width="244" height="18" rx="9" fill="#6367FF"/>
  <rect x="830" y="248" width="156" height="156" rx="38" fill="#8494FF"/>
  <path d="M908 288v76M870 326h76" stroke="#FFFFFF" stroke-width="18" stroke-linecap="round"/>
  <path d="M254 470c58-20 120-20 176 0v52c0 58-38 102-88 124-50-22-88-66-88-124z" fill="#FFFFFF" stroke="#6367FF" stroke-width="12" stroke-linejoin="round"/>
  <path d="M302 540l28 28 58-70" fill="none" stroke="#17182A" stroke-width="14" stroke-linecap="round" stroke-linejoin="round"/>
</svg>
