<svg xmlns="http://www.w3.org/2000/svg" viewBox="0 0 1200 760" role="img" aria-labelledby="title desc">
  <title id="title">Form skrining kesehatan</title>
  <desc id="desc">Ilustrasi clipboard skrining gejala, stetoskop, dan simbol medis.</desc>
  <defs>
    <linearGradient id="bg" x1="0" y1="0" x2="1" y2="1">
      <stop offset="0" stop-color="#FFFFFF"/>
      <stop offset="1" stop-color="#FFDBFD"/>
    </linearGradient>
    <filter id="shadow" x="-20%" y="-20%" width="140%" height="140%">
      <feDropShadow dx="0" dy="16" stdDeviation="18" flood-color="#17182A" flood-opacity=".13"/>
    </filter>
  </defs>
  <rect width="1200" height="760" rx="34" fill="url(#bg)"/>
  <circle cx="1000" cy="142" r="92" fill="#8494FF" opacity=".45"/>
  <rect x="245" y="100" width="456" height="560" rx="34" fill="#FFFFFF" stroke="#C9BEFF" stroke-width="4" filter="url(#shadow)"/>
  <rect x="385" y="76" width="176" height="68" rx="22" fill="#C9BEFF"/>
  <rect x="424" y="112" width="98" height="12" rx="6" fill="#FFFFFF" opacity=".9"/>
  <rect x="322" y="192" width="302" height="36" rx="18" fill="#FFDBFD"/>
  <g stroke="#6367FF" stroke-width="9" stroke-linecap="round" stroke-linejoin="round">
    <path d="M332 284l22 22 42-50"/>
    <path d="M332 384l22 22 42-50"/>
    <path d="M332 484l22 22 42-50"/>
  </g>
  <g fill="#17182A" opacity=".82">
    <rect x="430" y="262" width="172" height="16" rx="8"/>
    <rect x="430" y="298" width="122" height="12" rx="6" opacity=".5"/>
    <rect x="430" y="362" width="172" height="16" rx="8"/>
    <rect x="430" y="398" width="142" height="12" rx="6" opacity=".5"/>
    <rect x="430" y="462" width="172" height="16" rx="8"/>
    <rect x="430" y="498" width="132" height="12" rx="6" opacity=".5"/>
  </g>
  <path d="M820 204c98 34 120 150 56 228-40 48-55 85-40 126 18 50 96 52 116 6 14-31 0-65-31-78-35-15-72 3-86 36" fill="none" stroke="#17182A" stroke-width="18" stroke-linecap="round"/>
  <path d="M772 184c26 0 48 21 48 48v72c0 52-42 94-94 94h-24" fill="none" stroke="#6367FF" stroke-width="18" stroke-linecap="round"/>
  <circle cx="958" cy="538" r="52" fill="#8494FF" stroke="#17182A" stroke-width="14"/>
  <rect x="824" y="104" width="150" height="150" rx="34" fill="#C9BEFF"/>
  <path d="M899 144v70M864 179h70" stroke="#FFFFFF" stroke-width="18" stroke-linecap="round"/>
  <rect x="776" y="590" width="220" height="34" rx="17" fill="#FFDBFD"/>
  <rect x="810" y="628" width="154" height="14" rx="7" fill="#C9BEFF"/>
</svg>
