<svg xmlns="http://www.w3.org/2000/svg" viewBox="0 0 640 420" role="img" aria-labelledby="title desc">
    <title id="title">Ilustrasi profil pakar</title>
    <desc id="desc">Pakar meninjau basis pengetahuan dan hasil konsultasi.</desc>
    <rect width="640" height="420" rx="28" fill="#FFFDFB"/>
    <rect x="72" y="72" width="496" height="276" rx="30" fill="#F2EAE0"/>
    <circle cx="226" cy="150" r="52" fill="#9B8EC7"/>
    <path d="M156 316c9-72 44-112 70-112s61 40 70 112" fill="#BDA6CE"/>
    <path d="M190 156c20 24 52 24 72 0v42c0 22-16 40-36 40s-36-18-36-40z" fill="#F7CFAF"/>
    <path d="M184 142c8-38 34-56 70-36 18 10 25 28 18 50-24-14-52-10-88-14z" fill="#504373"/>
    <rect x="350" y="110" width="138" height="36" rx="18" fill="#B4D3D9"/>
    <rect x="350" y="170" width="190" height="18" rx="9" fill="#D8C5DF"/>
    <rect x="350" y="206" width="150" height="18" rx="9" fill="#D8C5DF"/>
    <rect x="350" y="250" width="112" height="42" rx="21" fill="#9B8EC7"/>
    <path d="M106 102l22 22 42-58" stroke="#9B8EC7" stroke-width="12" stroke-linecap="round" stroke-linejoin="round"/>
    <circle cx="498" cy="292" r="44" fill="#B4D3D9"/>
    <path d="M476 294h44M498 272v44" stroke="#FFFFFF" stroke-width="10" stroke-linecap="round"/>
</svg>
