<svg xmlns="http://www.w3.org/2000/svg" viewBox="0 0 1200 760" role="img" aria-labelledby="title desc">
  <title id="title">Edukasi kesehatan mental</title>
  <desc id="desc">Ilustrasi laptop berisi informasi kesehatan mental dan kartu gangguan.</desc>
  <defs>
    <linearGradient id="bg" x1="0" y1="0" x2="1" y2="1">
      <stop offset="0" stop-color="#F2EAE0"/>
      <stop offset="1" stop-color="#FFFFFF"/>
    </linearGradient>
    <filter id="shadow" x="-20%" y="-20%" width="140%" height="140%">
      <feDropShadow dx="0" dy="16" stdDeviation="18" flood-color="#2D2A32" flood-opacity=".12"/>
    </filter>
  </defs>
  <rect width="1200" height="760" rx="34" fill="url(#bg)"/>
  <circle cx="180" cy="145" r="90" fill="#B4D3D9" opacity=".5"/>
  <rect x="250" y="118" width="700" height="434" rx="30" fill="#2D2A32" filter="url(#shadow)"/>
  <rect x="286" y="154" width="628" height="350" rx="22" fill="#FFFFFF"/>
  <rect x="210" y="548" width="780" height="54" rx="20" fill="#9B8EC7"/>
  <rect x="322" y="208" width="214" height="228" rx="26" fill="#F2EAE0"/>
  <path d="M430 254c-54 0-86 35-86 79 0 52 43 82 86 82s86-30 86-82c0-44-32-79-86-79z" fill="#BDA6CE"/>
  <path d="M430 246v174M378 316c34-8 45 14 52 32 8-24 24-42 58-35M380 368c30-8 48 2 60 24 14-22 35-31 62-22" fill="none" stroke="#FFFFFF" stroke-width="12" stroke-linecap="round"/>
  <rect x="580" y="214" width="260" height="58" rx="18" fill="#B4D3D9"/>
  <rect x="580" y="306" width="260" height="58" rx="18" fill="#F2EAE0"/>
  <rect x="580" y="398" width="260" height="58" rx="18" fill="#BDA6CE" opacity=".8"/>
  <g fill="#2D2A32" opacity=".78">
    <rect x="616" y="235" width="144" height="12" rx="6"/>
    <rect x="616" y="327" width="170" height="12" rx="6"/>
    <rect x="616" y="419" width="120" height="12" rx="6"/>
  </g>
  <rect x="120" y="612" width="230" height="86" rx="24" fill="#FFFFFF" stroke="#E2D7C9" stroke-width="3"/>
  <rect x="486" y="612" width="230" height="86" rx="24" fill="#FFFFFF" stroke="#E2D7C9" stroke-width="3"/>
  <rect x="850" y="612" width="230" height="86" rx="24" fill="#FFFFFF" stroke="#E2D7C9" stroke-width="3"/>
  <path d="M190 656h90M552 656h100M916 656h96" stroke="#9B8EC7" stroke-width="14" stroke-linecap="round"/>
</svg>
