<svg xmlns="http://www.w3.org/2000/svg" viewBox="0 0 640 420" role="img" aria-labelledby="title desc">
    <title id="title">Ilustrasi informasi gangguan</title>
    <desc id="desc">Kartu informasi gangguan dan basis pengetahuan sistem.</desc>
    <rect width="640" height="420" rx="28" fill="#F2EAE0"/>
    <circle cx="132" cy="112" r="70" fill="#B4D3D9"/>
    <circle cx="506" cy="314" r="86" fill="#BDA6CE" opacity=".8"/>
    <rect x="108" y="92" width="424" height="238" rx="28" fill="#FFFFFF" stroke="#E4DACF" stroke-width="3"/>
    <rect x="148" y="132" width="150" height="128" rx="18" fill="#FFFDFB" stroke="#D8C5DF" stroke-width="3"/>
    <rect x="342" y="132" width="150" height="128" rx="18" fill="#FFFDFB" stroke="#D8C5DF" stroke-width="3"/>
    <path d="M178 166h84M178 196h64M178 226h94M372 166h84M372 196h64M372 226h94" stroke="#9B8EC7" stroke-width="10" stroke-linecap="round"/>
    <path d="M246 294c30-28 118-28 148 0" stroke="#B4D3D9" stroke-width="12" stroke-linecap="round"/>
    <path d="M304 84c26 0 46 20 46 46 0 20-12 36-30 43v32h-32v-32c-18-7-30-23-30-43 0-26 20-46 46-46z" fill="#9B8EC7"/>
</svg>
