<svg xmlns="http://www.w3.org/2000/svg" viewBox="0 0 1200 760" role="img" aria-labelledby="title desc">
  <title id="title">Konsultasi kesehatan mental secara online</title>
  <desc id="desc">Ilustrasi dokter kesehatan mental di layar laptop dengan clipboard, stetoskop, dan elemen pendukung kesehatan.</desc>
  <defs>
    <linearGradient id="bg" x1="0" y1="0" x2="1" y2="1">
      <stop offset="0" stop-color="#FFFFFF"/>
      <stop offset=".58" stop-color="#F2EAE0"/>
      <stop offset="1" stop-color="#B4D3D9"/>
    </linearGradient>
    <linearGradient id="screen" x1="0" y1="0" x2="1" y2="1">
      <stop offset="0" stop-color="#B4D3D9"/>
      <stop offset="1" stop-color="#9B8EC7"/>
    </linearGradient>
    <filter id="shadow" x="-20%" y="-20%" width="140%" height="140%">
      <feDropShadow dx="0" dy="18" stdDeviation="18" flood-color="#2D2A32" flood-opacity=".14"/>
    </filter>
  </defs>

  <rect width="1200" height="760" rx="34" fill="url(#bg)"/>
  <circle cx="212" cy="248" r="152" fill="#B4D3D9" opacity=".26"/>
  <circle cx="970" cy="246" r="162" fill="#BDA6CE" opacity=".25"/>
  <circle cx="596" cy="224" r="150" fill="#FFFFFF" opacity=".42"/>

  <path d="M142 386c80-94 184-84 278 4-86 54-190 70-302 34-16-6 10-26 24-38z" fill="#B4D3D9" opacity=".82"/>
  <path d="M150 300c70-70 158-62 230 8-72 50-154 66-230 42-20-6-18-34 0-50z" fill="#BDA6CE" opacity=".78"/>
  <path d="M806 360c86-76 190-66 266 22-90 58-196 66-292 24-20-10 8-32 26-46z" fill="#B4D3D9" opacity=".8"/>
  <path d="M838 474c84-70 184-56 252 32-96 54-198 56-292 12-18-8 20-32 40-44z" fill="#BDA6CE" opacity=".84"/>

  <path d="M206 118c110-70 214-42 246 36 28 68-52 104-10 156 42 52 154-24 244-42 112-22 192 22 270 104" fill="none" stroke="#8CA7B0" stroke-width="6" stroke-linecap="round" stroke-dasharray="16 18" opacity=".38"/>
  <path d="M998 86l76-42-30 84-18-32z" fill="#9B8EC7"/>
  <path d="M1026 96l-28-10 76-42z" fill="#B4D3D9"/>

  <g filter="url(#shadow)">
    <rect x="302" y="286" width="596" height="308" rx="36" fill="#2D2A32"/>
    <rect x="344" y="326" width="512" height="218" rx="24" fill="url(#screen)"/>
    <rect x="250" y="604" width="700" height="58" rx="20" fill="#6D638F"/>
    <path d="M218 662h764l-48 44H266z" fill="#2D2A32"/>
    <g fill="#B4D3D9" opacity=".9">
      <rect x="348" y="628" width="70" height="14" rx="7"/>
      <rect x="442" y="628" width="70" height="14" rx="7"/>
      <rect x="536" y="628" width="70" height="14" rx="7"/>
      <rect x="630" y="628" width="70" height="14" rx="7"/>
      <rect x="724" y="628" width="70" height="14" rx="7"/>
      <rect x="818" y="628" width="70" height="14" rx="7"/>
      <rect x="386" y="654" width="88" height="14" rx="7"/>
      <rect x="498" y="654" width="88" height="14" rx="7"/>
      <rect x="610" y="654" width="88" height="14" rx="7"/>
      <rect x="722" y="654" width="88" height="14" rx="7"/>
      <rect x="512" y="680" width="188" height="14" rx="7"/>
    </g>
  </g>

  <g>
    <path d="M522 252c0-86 58-142 138-142 72 0 124 50 132 126 8 76-26 130-82 150H542c-46-28-20-84-20-134z" fill="#2D2A32"/>
    <path d="M548 318c-58 32-96 94-108 194h320c-12-100-50-162-108-194z" fill="#FFFFFF"/>
    <path d="M590 330h120v180H590z" fill="#F0B79F"/>
    <path d="M612 364h76v146h-76z" fill="#BDA6CE"/>
    <path d="M562 228c0-62 42-104 98-104s98 42 98 104v56c0 66-42 112-98 112s-98-46-98-112z" fill="#F0B79F"/>
    <path d="M560 232c50-22 84-62 98-110 32 58 72 92 116 104-4-84-54-138-124-138-72 0-124 58-124 144 10 6 22 6 34 0z" fill="#2D2A32"/>
    <ellipse cx="628" cy="268" rx="7" ry="9" fill="#2D2A32"/>
    <ellipse cx="690" cy="268" rx="7" ry="9" fill="#2D2A32"/>
    <path d="M656 268c-8 24-14 42 8 46" fill="none" stroke="#C68673" stroke-width="6" stroke-linecap="round"/>
    <path d="M626 338c22 18 52 18 74 0" fill="none" stroke="#2D2A32" stroke-width="7" stroke-linecap="round"/>

    <path d="M552 344c-28 44-36 86-26 138M748 344c28 44 36 86 26 138" fill="none" stroke="#2D2A32" stroke-width="8" stroke-linecap="round"/>
    <circle cx="526" cy="486" r="17" fill="#2D2A32"/>
    <circle cx="774" cy="486" r="17" fill="#2D2A32"/>
    <path d="M526 486c-28-12-54 2-70 28M774 486c28-12 54 2 70 28" fill="none" stroke="#2D2A32" stroke-width="7" stroke-linecap="round"/>

    <path d="M502 388c-34 18-58 48-70 90" fill="none" stroke="#FFFFFF" stroke-width="44" stroke-linecap="round"/>
    <path d="M798 388c34 18 58 48 70 90" fill="none" stroke="#FFFFFF" stroke-width="44" stroke-linecap="round"/>
    <path d="M460 484c32 22 70 34 112 36" fill="none" stroke="#F0B79F" stroke-width="32" stroke-linecap="round"/>
    <path d="M730 520c46-2 86-14 120-38" fill="none" stroke="#F0B79F" stroke-width="32" stroke-linecap="round"/>
  </g>

  <g filter="url(#shadow)">
    <rect x="500" y="430" width="198" height="168" rx="16" fill="#1D2435"/>
    <rect x="536" y="462" width="118" height="12" rx="6" fill="#B4D3D9" opacity=".72"/>
    <rect x="536" y="494" width="92" height="12" rx="6" fill="#B4D3D9" opacity=".72"/>
    <rect x="536" y="526" width="118" height="12" rx="6" fill="#B4D3D9" opacity=".72"/>
  </g>

  <rect x="790" y="234" width="152" height="94" rx="24" fill="#FFFFFF" opacity=".95"/>
  <path d="M866 254v54M839 281h54" stroke="#9B8EC7" stroke-width="14" stroke-linecap="round"/>
  <circle cx="258" cy="542" r="50" fill="#FFFFFF" opacity=".88"/>
  <path d="M258 510v64M226 542h64" stroke="#BDA6CE" stroke-width="15" stroke-linecap="round"/>
  <path d="M612 86c-28-42-82-10-60 34 18 36 66 48 98 86 32-38 80-50 98-86 22-44-32-76-60-34" fill="#FFFFFF" stroke="#9B8EC7" stroke-width="8" stroke-linecap="round" stroke-linejoin="round" opacity=".96"/>
</svg>
