<svg xmlns="http://www.w3.org/2000/svg" viewBox="0 0 1200 760" role="img" aria-labelledby="title desc">
  <title id="title">Konsultasi kesehatan mental remaja</title>
  <desc id="desc">Ilustrasi vektor sesi konseling awal dengan tenaga kesehatan, remaja, dan simbol kesehatan mental.</desc>
  <defs>
    <linearGradient id="bg" x1="0" y1="0" x2="1" y2="1">
      <stop offset="0" stop-color="#F2EAE0"/>
      <stop offset="1" stop-color="#B4D3D9"/>
    </linearGradient>
    <filter id="shadow" x="-20%" y="-20%" width="140%" height="140%">
      <feDropShadow dx="0" dy="18" stdDeviation="18" flood-color="#2D2A32" flood-opacity=".14"/>
    </filter>
  </defs>
  <rect width="1200" height="760" rx="34" fill="url(#bg)"/>
  <circle cx="1030" cy="120" r="96" fill="#BDA6CE" opacity=".38"/>
  <circle cx="170" cy="620" r="120" fill="#FFFFFF" opacity=".52"/>
  <rect x="140" y="132" width="920" height="496" rx="34" fill="#FFFFFF" filter="url(#shadow)"/>
  <rect x="198" y="190" width="360" height="350" rx="28" fill="#F8F5F1" stroke="#E2D7C9" stroke-width="3"/>
  <rect x="642" y="190" width="360" height="350" rx="28" fill="#F8F5F1" stroke="#E2D7C9" stroke-width="3"/>
  <circle cx="378" cy="300" r="62" fill="#BDA6CE"/>
  <path d="M270 492c18-88 196-88 216 0" fill="#9B8EC7"/>
  <path d="M343 314c18 24 52 24 70 0" fill="none" stroke="#2D2A32" stroke-width="9" stroke-linecap="round"/>
  <circle cx="822" cy="300" r="62" fill="#B4D3D9"/>
  <path d="M714 492c18-88 196-88 216 0" fill="#BDA6CE"/>
  <path d="M789 314c18 24 52 24 70 0" fill="none" stroke="#2D2A32" stroke-width="9" stroke-linecap="round"/>
  <path d="M530 318c52-44 126-44 178 0" fill="none" stroke="#9B8EC7" stroke-width="12" stroke-linecap="round"/>
  <path d="M708 318l-42-5 17 38" fill="none" stroke="#9B8EC7" stroke-width="12" stroke-linecap="round" stroke-linejoin="round"/>
  <rect x="474" y="104" width="252" height="74" rx="22" fill="#FFFFFF" stroke="#E2D7C9" stroke-width="3"/>
  <path d="M600 132v28M586 146h28" stroke="#9B8EC7" stroke-width="13" stroke-linecap="round"/>
  <path d="M566 146c-25-42-72-10-55 25 15 31 55 45 89 76 34-31 74-45 89-76 17-35-30-67-55-25" fill="none" stroke="#2D2A32" stroke-width="8" stroke-linecap="round" stroke-linejoin="round"/>
  <rect x="354" y="588" width="492" height="14" rx="7" fill="#BDA6CE"/>
  <rect x="438" y="622" width="324" height="12" rx="6" fill="#9B8EC7"/>
</svg>
