<svg xmlns="http://www.w3.org/2000/svg" viewBox="0 0 1200 760" role="img" aria-labelledby="title desc">
  <title id="title">Ringkasan hasil skrining</title>
  <desc id="desc">Ilustrasi laporan hasil skrining dengan grafik keyakinan dan rekomendasi awal.</desc>
  <defs>
    <linearGradient id="bg" x1="0" y1="0" x2="1" y2="1">
      <stop offset="0" stop-color="#FFDBFD"/>
      <stop offset="1" stop-color="#FFFFFF"/>
    </linearGradient>
    <filter id="shadow" x="-20%" y="-20%" width="140%" height="140%">
      <feDropShadow dx="0" dy="16" stdDeviation="18" flood-color="#17182A" flood-opacity=".12"/>
    </filter>
  </defs>
  <rect width="1200" height="760" rx="34" fill="url(#bg)"/>
  <rect x="218" y="82" width="764" height="596" rx="36" fill="#FFFFFF" stroke="#C9BEFF" stroke-width="4" filter="url(#shadow)"/>
  <rect x="294" y="154" width="250" height="36" rx="18" fill="#17182A" opacity=".86"/>
  <rect x="294" y="224" width="612" height="112" rx="26" fill="#FFDBFD"/>
  <circle cx="365" cy="280" r="38" fill="#C9BEFF"/>
  <path d="M365 256v48M341 280h48" stroke="#FFFFFF" stroke-width="12" stroke-linecap="round"/>
  <rect x="430" y="260" width="300" height="18" rx="9" fill="#17182A" opacity=".75"/>
  <rect x="430" y="292" width="210" height="12" rx="6" fill="#17182A" opacity=".35"/>
  <rect x="294" y="398" width="612" height="34" rx="17" fill="#EDE7F3"/>
  <rect x="294" y="398" width="514" height="34" rx="17" fill="#6367FF"/>
  <rect x="294" y="476" width="612" height="34" rx="17" fill="#EDE7F3"/>
  <rect x="294" y="476" width="318" height="34" rx="17" fill="#8494FF"/>
  <rect x="294" y="554" width="612" height="34" rx="17" fill="#EDE7F3"/>
  <rect x="294" y="554" width="226" height="34" rx="17" fill="#C9BEFF"/>
  <path d="M738 590c-32-52-92-10-68 34 18 32 62 42 94 76 32-34 76-44 94-76 24-44-36-86-68-34" fill="none" stroke="#6367FF" stroke-width="12" stroke-linecap="round" stroke-linejoin="round"/>
  <path d="M780 632h42l20-38 24 78 24-40h40" fill="none" stroke="#17182A" stroke-width="8" stroke-linecap="round" stroke-linejoin="round"/>
</svg>
